<?xml version="1.0" encoding="UTF-8" standalone="no"?>
<svg
   width="512"
   height="512"
   viewBox="0 0 512 512"
   version="1.1"
   id="svg12"
   sodipodi:docname="orbit.svg"
   inkscape:version="1.4.2 (ebf0e940d0, 2025-05-08)"
   xmlns:inkscape="http://www.inkscape.org/namespaces/inkscape"
   xmlns:sodipodi="http://sodipodi.sourceforge.net/DTD/sodipodi-0.dtd"
   xmlns="http://www.w3.org/2000/svg"
   xmlns:svg="http://www.w3.org/2000/svg">
  <sodipodi:namedview
     id="namedview12"
     pagecolor="#ffffff"
     bordercolor="#000000"
     borderopacity="0.25"
     inkscape:showpageshadow="2"
     inkscape:pageopacity="0.0"
     inkscape:pagecheckerboard="true"
     inkscape:deskcolor="#d1d1d1"
     inkscape:zoom="1.5742188"
     inkscape:cx="255.99999"
     inkscape:cy="273.78659"
     inkscape:window-width="2560"
     inkscape:window-height="1371"
     inkscape:window-x="0"
     inkscape:window-y="0"
     inkscape:window-maximized="1"
     inkscape:current-layer="svg12" />
  <defs
     id="defs2">
    <inkscape:path-effect
       effect="powerclip"
       message=""
       id="path-effect18"
       is_visible="true"
       lpeversion="1"
       inverse="true"
       flatten="false"
       hide_clip="false" />
    <inkscape:path-effect
       effect="powerclip"
       message=""
       id="path-effect17"
       is_visible="true"
       lpeversion="1"
       inverse="true"
       flatten="false"
       hide_clip="false" />
    <inkscape:path-effect
       effect="powerclip"
       message=""
       id="path-effect13"
       is_visible="true"
       lpeversion="1"
       inverse="true"
       flatten="false"
       hide_clip="false" />
    <linearGradient
       id="gradient_0"
       gradientUnits="userSpaceOnUse"
       x1="522.75012"
       y1="527.59045"
       x2="460.81516"
       y2="410.56137">
      <stop
         offset="0"
         stop-color="#325FB3"
         id="stop1" />
      <stop
         offset="1"
         stop-color="#1BA9DD"
         id="stop2" />
    </linearGradient>
    <clipPath
       clipPathUnits="userSpaceOnUse"
       id="clipPath13">
      <path
         fill="#fcfcfc"
         d="m 330.981,531.859 c 1.087,17.566 4.4,47.453 12.166,63.251 4.392,17.872 21.921,39.811 31.545,54.635 -32.486,8.982 -76.575,17.064 -110.451,13.034 -9.148,-1.088 -22.27,-5.755 -27.812,-13.504 -3.276,-4.58 -4.501,-12.173 -3.084,-17.473 10.312,-38.547 67.228,-79.68 97.636,-99.943 z"
         id="path13"
         style="display:none;stroke-width:1" />
      <path
         id="lpe_path-effect13"
         style="stroke-width:1"
         class="powerclip"
         d="M 179.98966,499.094 H 466.59089 V 698.17793 H 179.98966 Z M 330.981,531.859 c -30.408,20.263 -87.324,61.396 -97.636,99.943 -1.417,5.3 -0.192,12.893 3.084,17.473 5.542,7.749 18.664,12.416 27.812,13.504 33.876,4.03 77.965,-4.052 110.451,-13.034 -9.624,-14.824 -27.153,-36.763 -31.545,-54.635 -7.766,-15.798 -11.079,-45.685 -12.166,-63.251 z" />
    </clipPath>
    <clipPath
       clipPathUnits="userSpaceOnUse"
       id="clipPath16">
      <path
         fill="#fcfcfc"
         d="m 644.051,382.696 c 31.532,-10.592 106.091,-24.952 134.26,-10.042 51.189,27.095 -54.448,105.282 -71.299,118.153 -0.612,-2.111 -1.409,-7.442 -2.174,-10.353 -3.198,-12.17 -7.458,-26.178 -13.488,-37.209 -8.399,-20.536 -30.222,-46.637 -47.299,-60.549 z"
         id="path16"
         style="display:none;stroke-width:1" />
      <path
         id="lpe_path-effect17"
         style="stroke-width:1"
         class="powerclip"
         d="M 388.877,333.04559 H 845.27911 V 720.34878 H 388.877 Z M 644.051,382.696 c 17.077,13.912 38.9,40.013 47.299,60.549 6.03,11.031 10.29,25.039 13.488,37.209 0.765,2.911 1.562,8.242 2.174,10.353 16.851,-12.871 122.488,-91.058 71.299,-118.153 -28.169,-14.91 -102.728,-0.55 -134.26,10.042 z" />
    </clipPath>
    <clipPath
       clipPathUnits="userSpaceOnUse"
       id="clipPath17">
      <path
         fill="#fcfcfc"
         d="m 644.051,382.696 c 31.532,-10.592 106.091,-24.952 134.26,-10.042 51.189,27.095 -54.448,105.282 -71.299,118.153 -0.612,-2.111 -1.409,-7.442 -2.174,-10.353 -3.198,-12.17 -7.458,-26.178 -13.488,-37.209 -8.399,-20.536 -30.222,-46.637 -47.299,-60.549 z"
         id="path17"
         style="display:none;stroke-width:1" />
      <path
         id="lpe_path-effect18"
         style="stroke-width:1"
         class="powerclip"
         d="M 325.981,332.0153 H 845.27911 V 720.34878 H 325.981 Z m 318.07,50.6807 c 17.077,13.912 38.9,40.013 47.299,60.549 6.03,11.031 10.29,25.039 13.488,37.209 0.765,2.911 1.562,8.242 2.174,10.353 16.851,-12.871 122.488,-91.058 71.299,-118.153 -28.169,-14.91 -102.728,-0.55 -134.26,10.042 z" />
    </clipPath>
  </defs>
  <defs
     id="defs4">
    <linearGradient
       id="gradient_1"
       gradientUnits="userSpaceOnUse"
       x1="582.4967"
       y1="668.70361"
       x2="547.99213"
       y2="583.89966">
      <stop
         offset="0"
         stop-color="#F99848"
         id="stop3" />
      <stop
         offset="1"
         stop-color="#946574"
         id="stop4" />
    </linearGradient>
  </defs>
  <defs
     id="defs9">
    <linearGradient
       id="gradient_2"
       gradientUnits="userSpaceOnUse"
       x1="483.9548"
       y1="442.92038"
       x2="434.63684"
       y2="358.18231">
      <stop
         offset="0"
         stop-color="#25A2DA"
         id="stop8" />
      <stop
         offset="1"
         stop-color="#46D0E2"
         id="stop9" />
    </linearGradient>
  </defs>
  <defs
     id="defs11">
    <linearGradient
       id="gradient_3"
       gradientUnits="userSpaceOnUse"
       x1="458.27097"
       y1="643.93329"
       x2="203.5795"
       y2="579.23407">
      <stop
         offset="0"
         stop-color="#45ABD6"
         id="stop10" />
      <stop
         offset="1"
         stop-color="#59DEE7"
         id="stop11" />
    </linearGradient>
  </defs>
  <g
     id="g18"
     transform="matrix(1.537046,0,0,1.537046,-137.97174,-149.57328)">
    <path
       fill="url(#gradient_0)"
       transform="scale(0.5)"
       d="m 340.697,468.707 c 0.521,-2.003 1.594,-4.744 2.34,-6.705 18.162,-48.711 55.063,-88.127 102.472,-109.457 39.257,-17.017 83.14,-20.154 124.419,-8.892 8.724,2.317 16.156,5.184 24.571,8.395 8.638,3.87 18.513,8.3 26.05,13.97 48.296,-15.21 154.11,-42.488 200.179,-18.469 8.08,4.213 15.208,10.62 18.06,19.52 3.809,11.883 -0.235,24.608 -5.873,35.178 -19.238,36.069 -63.687,71.482 -96.265,95.408 -8.956,6.578 -18.799,12.374 -27.441,19.302 0.56,25.37 -1.365,45.403 -9.636,69.771 -2.199,6.477 -5.406,15.19 -8.829,21.13 -16.807,39.267 -60.54,77.985 -99.996,93.799 -33.535,13.295 -70.106,17.002 -105.627,10.708 -6.241,-1.083 -16.281,-2.971 -21.795,-5.526 -11.163,-1.099 -41.186,-17.124 -51.02,-24.056 -5.551,-3.913 -13.072,-9.975 -18.429,-14.442 12.483,-3.99 27.908,-8.507 39.936,-13.264 4.842,-4.5 22.996,-6.792 24.418,-11.486 1.244,-4.108 4.616,-16.057 2.867,-19.632 -2.381,-1.153 -10.465,3.234 -15.15,3.685 -21.354,7.345 -42.725,14.765 -64.584,20.5 -2.201,0.578 -4.42,1.256 -6.672,1.601 -9.624,-14.824 -27.153,-36.763 -31.545,-54.635 -7.766,-15.798 -11.079,-45.685 -12.166,-63.251 0.027,-9.84 0.602,-17.966 1.59,-27.765 1.457,-10.915 4.234,-25.089 8.126,-35.387 z"
       id="path2"
       clip-path="url(#clipPath17)"
       inkscape:path-effect="#path-effect18"
       inkscape:original-d="m 340.697,468.707 c 0.521,-2.003 1.594,-4.744 2.34,-6.705 18.162,-48.711 55.063,-88.127 102.472,-109.457 39.257,-17.017 83.14,-20.154 124.419,-8.892 8.724,2.317 16.156,5.184 24.571,8.395 8.638,3.87 18.513,8.3 26.05,13.97 48.296,-15.21 154.11,-42.488 200.179,-18.469 8.08,4.213 15.208,10.62 18.06,19.52 3.809,11.883 -0.235,24.608 -5.873,35.178 -19.238,36.069 -63.687,71.482 -96.265,95.408 -8.956,6.578 -18.799,12.374 -27.441,19.302 0.56,25.37 -1.365,45.403 -9.636,69.771 -2.199,6.477 -5.406,15.19 -8.829,21.13 -16.807,39.267 -60.54,77.985 -99.996,93.799 -33.535,13.295 -70.106,17.002 -105.627,10.708 -6.241,-1.083 -16.281,-2.971 -21.795,-5.526 -11.163,-1.099 -41.186,-17.124 -51.02,-24.056 -5.551,-3.913 -13.072,-9.975 -18.429,-14.442 12.483,-3.99 27.908,-8.507 39.936,-13.264 4.842,-4.5 22.996,-6.792 24.418,-11.486 1.244,-4.108 4.616,-16.057 2.867,-19.632 -2.381,-1.153 -10.465,3.234 -15.15,3.685 -21.354,7.345 -42.725,14.765 -64.584,20.5 -2.201,0.578 -4.42,1.256 -6.672,1.601 -9.624,-14.824 -27.153,-36.763 -31.545,-54.635 -7.766,-15.798 -11.079,-45.685 -12.166,-63.251 0.027,-9.84 0.602,-17.966 1.59,-27.765 1.457,-10.915 4.234,-25.089 8.126,-35.387 z"
       style="fill:url(#gradient_0)" />
    <path
       fill="#474a9c"
       transform="scale(0.5)"
       d="m 620.549,366.018 c 48.296,-15.21 154.11,-42.488 200.179,-18.469 8.08,4.213 15.208,10.62 18.06,19.52 3.809,11.883 -0.235,24.608 -5.873,35.178 -19.238,36.069 -63.687,71.482 -96.265,95.408 -8.956,6.578 -18.799,12.374 -27.441,19.302 0.56,25.37 -1.365,45.403 -9.636,69.771 -2.199,6.477 -5.406,15.19 -8.829,21.13 -16.807,39.267 -60.54,77.985 -99.996,93.799 -33.535,13.295 -70.106,17.002 -105.627,10.708 -6.241,-1.083 -16.281,-2.971 -21.795,-5.526 -11.163,-1.099 -41.186,-17.124 -51.02,-24.056 -5.551,-3.913 -13.072,-9.975 -18.429,-14.442 12.483,-3.99 27.908,-8.507 39.936,-13.264 4.842,-4.5 22.996,-6.792 24.418,-11.486 1.244,-4.108 4.616,-16.057 2.867,-19.632 -2.381,-1.153 -10.465,3.234 -15.15,3.685 11.9,-4.437 23.769,-8.957 35.607,-13.559 3.881,-1.528 28.446,-12.101 30.427,-12.165 4.84,-1.387 16.636,-7.89 22.255,-10.477 48.244,-21.909 94.652,-47.657 138.774,-76.995 9.623,-6.379 25.521,-16.578 34.001,-23.641 -0.612,-2.111 -1.409,-7.442 -2.174,-10.353 -3.198,-12.17 -7.458,-26.178 -13.488,-37.209 -8.399,-20.536 -30.222,-46.637 -47.299,-60.549 -8.256,-6.308 -14.655,-11.155 -23.502,-16.678 z"
       id="path3"
       clip-path="url(#clipPath16)"
       inkscape:path-effect="#path-effect17"
       inkscape:original-d="m 620.549,366.018 c 48.296,-15.21 154.11,-42.488 200.179,-18.469 8.08,4.213 15.208,10.62 18.06,19.52 3.809,11.883 -0.235,24.608 -5.873,35.178 -19.238,36.069 -63.687,71.482 -96.265,95.408 -8.956,6.578 -18.799,12.374 -27.441,19.302 0.56,25.37 -1.365,45.403 -9.636,69.771 -2.199,6.477 -5.406,15.19 -8.829,21.13 -16.807,39.267 -60.54,77.985 -99.996,93.799 -33.535,13.295 -70.106,17.002 -105.627,10.708 -6.241,-1.083 -16.281,-2.971 -21.795,-5.526 -11.163,-1.099 -41.186,-17.124 -51.02,-24.056 -5.551,-3.913 -13.072,-9.975 -18.429,-14.442 12.483,-3.99 27.908,-8.507 39.936,-13.264 4.842,-4.5 22.996,-6.792 24.418,-11.486 1.244,-4.108 4.616,-16.057 2.867,-19.632 -2.381,-1.153 -10.465,3.234 -15.15,3.685 11.9,-4.437 23.769,-8.957 35.607,-13.559 3.881,-1.528 28.446,-12.101 30.427,-12.165 4.84,-1.387 16.636,-7.89 22.255,-10.477 48.244,-21.909 94.652,-47.657 138.774,-76.995 9.623,-6.379 25.521,-16.578 34.001,-23.641 -0.612,-2.111 -1.409,-7.442 -2.174,-10.353 -3.198,-12.17 -7.458,-26.178 -13.488,-37.209 -8.399,-20.536 -30.222,-46.637 -47.299,-60.549 -8.256,-6.308 -14.655,-11.155 -23.502,-16.678 z" />
    <path
       fill="url(#gradient_1)"
       transform="scale(0.5)"
       d="m 509.573,625.518 c 11.706,-4.088 32.048,-14.098 43.988,-19.792 40.684,-19.073 80.211,-40.522 118.376,-64.236 10.609,-6.589 27.649,-17.021 37.272,-24.533 0.56,25.37 -1.365,45.403 -9.636,69.771 -2.199,6.477 -5.406,15.19 -8.829,21.13 -16.807,39.267 -60.54,77.985 -99.996,93.799 -33.535,13.295 -70.106,17.002 -105.627,10.708 -6.241,-1.083 -16.281,-2.971 -21.795,-5.526 -11.163,-1.099 -41.186,-17.124 -51.02,-24.056 -5.551,-3.913 -13.072,-9.975 -18.429,-14.442 12.483,-3.99 27.908,-8.507 39.936,-13.264 6.046,-1.658 18.335,-6.51 24.476,-8.809 17.319,-6.351 34.423,-13.271 51.284,-20.75 z"
       id="path4"
       style="fill:url(#gradient_1)" />
    <path
       fill="#f39d5a"
       transform="scale(0.5)"
       d="m 463.326,706.839 c 4.279,-0.593 13.151,4.504 18.328,3.055 0.65,-0.593 0.911,-0.866 0.957,-1.802 0.051,-0.325 0.102,-0.651 0.153,-0.976 -0.538,-1.946 5.943,-8.425 7.76,-9.624 8.01,-5.282 17.31,-11.353 25.441,-16.605 0,0 2.43,-0.061 2.43,-0.061 2.053,-1.414 4.223,-3.295 6.39,-4.46 8.351,-4.488 16.355,-9.524 25.145,-13.125 15.643,-6.408 31.545,-11.854 47.225,-18.317 5.73,-2.362 12.163,-6.587 17.537,-8.763 7.273,-2.944 17.954,-6.557 25.731,-8.885 11.13,-3.331 29.341,-1.422 40.409,-4.262 2.247,-0.576 6.814,-13.155 9.306,-14.852 0.202,-0.102 0.404,-0.203 0.606,-0.304 -16.807,39.267 -60.54,77.985 -99.996,93.799 -33.535,13.295 -70.106,17.002 -105.627,10.708 -6.241,-1.083 -16.281,-2.971 -21.795,-5.526 z"
       id="path5" />
    <path
       fill="#3e8bc4"
       transform="scale(0.5)"
       d="m 445.948,627.644 c 11.9,-4.437 23.769,-8.957 35.607,-13.559 3.881,-1.528 28.446,-12.101 30.427,-12.165 l -0.817,0.418 c -12.832,6.468 -27.129,10.655 -39.916,17.128 0.184,-0.093 -4.292,20.612 -4.316,22.269 0.254,-0.006 4.621,-1.195 4.852,-1.296 7.696,-3.364 15.578,-6.316 23.339,-9.528 3.407,-1.351 11.576,-5.334 14.356,-6.015 l 0.093,0.622 c -16.861,7.479 -33.965,14.399 -51.284,20.75 -6.141,2.299 -18.43,7.151 -24.476,8.809 4.842,-4.5 22.996,-6.792 24.418,-11.486 1.244,-4.108 4.616,-16.057 2.867,-19.632 -2.381,-1.153 -10.465,3.234 -15.15,3.685 z"
       id="path7" />
    <path
       fill="#5f6299"
       transform="scale(0.5)"
       d="m 343.147,595.11 c 0.465,-3.811 -3.247,-8.77 -2.721,-11.25 2.355,-7.577 13.819,-4.801 19.131,-6.216 21.773,-5.797 44.904,-7.006 65.72,-16.145 9.558,-4.196 19.229,-5.674 28.517,-9.178 11.037,-4.164 21.191,-7.111 32.356,-10.679 10.047,-3.531 19.667,-10.427 29.351,-15.004 3.612,-1.707 7.203,-4.741 11.008,-6.263 7.861,-3.792 15.929,-5.709 23.854,-8.799 2.67,-1.041 8.784,-5.149 12.159,-6.802 8.165,-3.996 17.712,-7.579 25.649,-11.429 7.831,-4.15 15.554,-9.055 23.425,-13.08 9.027,-4.616 17.215,-8.075 25.21,-14.4 4.154,-3.285 9.464,-5.951 13.645,-9.397 3.363,-2.773 6.879,-5.642 10.452,-8.127 7.357,-3.975 16.33,-12.386 25.065,-11.894 1.99,0.302 4.053,5.471 5.076,7.523 l 0.306,-0.725 c 6.03,11.031 10.29,25.039 13.488,37.209 0.765,2.911 1.562,8.242 2.174,10.353 -8.48,7.063 -24.378,17.262 -34.001,23.641 -44.122,29.338 -90.53,55.086 -138.774,76.995 -5.619,2.587 -17.415,9.09 -22.255,10.477 -1.981,0.064 -26.546,10.637 -30.427,12.165 -11.838,4.602 -23.707,9.122 -35.607,13.559 -21.354,7.345 -42.725,14.765 -64.584,20.5 -2.201,0.578 -4.42,1.256 -6.672,1.601 -9.624,-14.824 -27.153,-36.763 -31.545,-54.635 z"
       id="path8" />
    <path
       fill="url(#gradient_2)"
       transform="scale(0.5)"
       d="m 340.697,468.707 c 0.521,-2.003 1.594,-4.744 2.34,-6.705 18.162,-48.711 55.063,-88.127 102.472,-109.457 39.257,-17.017 83.14,-20.154 124.419,-8.892 8.724,2.317 16.156,5.184 24.571,8.395 -6.15,8.376 -12.505,16.563 -19.651,24.115 -60.152,63.578 -147.512,102.411 -235.067,97.486 0.611,-1.527 1.374,-2.892 1.226,-4.475 z"
       id="path9"
       style="fill:url(#gradient_2)" />
    <path
       fill="url(#gradient_3)"
       transform="scale(0.5)"
       d="m 332.571,504.094 c -0.988,9.799 -1.563,17.925 -1.59,27.765 1.087,17.566 4.4,47.453 12.166,63.251 4.392,17.872 21.921,39.811 31.545,54.635 2.252,-0.345 4.471,-1.023 6.672,-1.601 21.859,-5.735 43.23,-13.155 64.584,-20.5 4.685,-0.451 12.769,-4.838 15.15,-3.685 1.749,3.575 -1.623,15.524 -2.867,19.632 -1.422,4.694 -19.576,6.986 -24.418,11.486 -12.028,4.757 -27.453,9.274 -39.936,13.264 -3.677,0.505 -7.596,1.935 -11.195,2.908 -8.125,2.197 -16.245,4.505 -24.428,6.475 -38.598,9.293 -101.773,21.738 -140.56,11.782 -10.866,-2.789 -23.114,-8.205 -28.895,-18.401 -4.862,-8.575 -4.575,-18.965 -1.901,-28.184 12.36,-42.622 77.548,-93.009 113.265,-117.833 10.521,-7.312 21.178,-14.807 32.408,-20.994 z"
       id="path11"
       clip-path="url(#clipPath13)"
       inkscape:path-effect="#path-effect13"
       inkscape:original-d="m 332.571,504.094 c -0.988,9.799 -1.563,17.925 -1.59,27.765 1.087,17.566 4.4,47.453 12.166,63.251 4.392,17.872 21.921,39.811 31.545,54.635 2.252,-0.345 4.471,-1.023 6.672,-1.601 21.859,-5.735 43.23,-13.155 64.584,-20.5 4.685,-0.451 12.769,-4.838 15.15,-3.685 1.749,3.575 -1.623,15.524 -2.867,19.632 -1.422,4.694 -19.576,6.986 -24.418,11.486 -12.028,4.757 -27.453,9.274 -39.936,13.264 -3.677,0.505 -7.596,1.935 -11.195,2.908 -8.125,2.197 -16.245,4.505 -24.428,6.475 -38.598,9.293 -101.773,21.738 -140.56,11.782 -10.866,-2.789 -23.114,-8.205 -28.895,-18.401 -4.862,-8.575 -4.575,-18.965 -1.901,-28.184 12.36,-42.622 77.548,-93.009 113.265,-117.833 10.521,-7.312 21.178,-14.807 32.408,-20.994 z"
       style="fill:url(#gradient_3)" />
  </g>
</svg>
