<?xml version="1.0" encoding="UTF-8" standalone="no"?>
<svg
   width="512"
   height="512"
   viewBox="0 0 512 512"
   version="1.1"
   id="svg12"
   sodipodi:docname="orbit.svg"
   inkscape:version="1.4.2 (ebf0e940d0, 2025-05-08)"
   xmlns:inkscape="http://www.inkscape.org/namespaces/inkscape"
   xmlns:sodipodi="http://sodipodi.sourceforge.net/DTD/sodipodi-0.dtd"
   xmlns="http://www.w3.org/2000/svg"
   xmlns:svg="http://www.w3.org/2000/svg">
  <sodipodi:namedview
     id="namedview12"
     pagecolor="#ffffff"
     bordercolor="#000000"
     borderopacity="0.25"
     inkscape:showpageshadow="2"
     inkscape:pageopacity="0.0"
     inkscape:pagecheckerboard="true"
     inkscape:deskcolor="#d1d1d1"
     inkscape:zoom="1.5742188"
     inkscape:cx="256"
     inkscape:cy="273.15136"
     inkscape:window-width="1692"
     inkscape:window-height="1059"
     inkscape:window-x="0"
     inkscape:window-y="0"
     inkscape:window-maximized="1"
     inkscape:current-layer="svg12" />
  <defs
     id="defs2">
    <inkscape:path-effect
       effect="powerclip"
       message=""
       id="path-effect18"
       is_visible="true"
       lpeversion="1"
       inverse="true"
       flatten="false"
       hide_clip="false" />
    <inkscape:path-effect
       effect="powerclip"
       message=""
       id="path-effect17"
       is_visible="true"
       lpeversion="1"
       inverse="true"
       flatten="false"
       hide_clip="false" />
    <inkscape:path-effect
       effect="powerclip"
       message=""
       id="path-effect13"
       is_visible="true"
       lpeversion="1"
       inverse="true"
       flatten="false"
       hide_clip="false" />
    <linearGradient
       id="gradient_0"
       gradientUnits="userSpaceOnUse"
       x1="522.75012"
       y1="527.59045"
       x2="460.81516"
       y2="410.56137">
      <stop
         offset="0"
         stop-color="#325FB3"
         id="stop1" />
      <stop
         offset="1"
         stop-color="#1BA9DD"
         id="stop2" />
    </linearGradient>
    <clipPath
       clipPathUnits="userSpaceOnUse"
       id="clipPath13">
      <path
         fill="#fcfcfc"
         d="m 330.981,531.859 c 1.087,17.566 4.4,47.453 12.166,63.251 4.392,17.872 21.921,39.811 31.545,54.635 -32.486,8.982 -76.575,17.064 -110.451,13.034 -9.148,-1.088 -22.27,-5.755 -27.812,-13.504 -3.276,-4.58 -4.501,-12.173 -3.084,-17.473 10.312,-38.547 67.228,-79.68 97.636,-99.943 z"
         id="path13"
         style="display:none;stroke-width:1" />
      <path
         id="lpe_path-effect13"
         style="stroke-width:1"
         class="powerclip"
         d="M 179.98966,499.094 H 466.59089 V 698.17793 H 179.98966 Z M 330.981,531.859 c -30.408,20.263 -87.324,61.396 -97.636,99.943 -1.417,5.3 -0.192,12.893 3.084,17.473 5.542,7.749 18.664,12.416 27.812,13.504 33.876,4.03 77.965,-4.052 110.451,-13.034 -9.624,-14.824 -27.153,-36.763 -31.545,-54.635 -7.766,-15.798 -11.079,-45.685 -12.166,-63.251 z" />
    </clipPath>
    <clipPath
       clipPathUnits="userSpaceOnUse"
       id="clipPath16">
      <path
         fill="#fcfcfc"
         d="m 644.051,382.696 c 31.532,-10.592 106.091,-24.952 134.26,-10.042 51.189,27.095 -54.448,105.282 -71.299,118.153 -0.612,-2.111 -1.409,-7.442 -2.174,-10.353 -3.198,-12.17 -7.458,-26.178 -13.488,-37.209 -8.399,-20.536 -30.222,-46.637 -47.299,-60.549 z"
         id="path16"
         style="display:none;stroke-width:1" />
      <path
         id="lpe_path-effect17"
         style="stroke-width:1"
         class="powerclip"
         d="M 388.877,333.04559 H 845.27911 V 720.34878 H 388.877 Z M 644.051,382.696 c 17.077,13.912 38.9,40.013 47.299,60.549 6.03,11.031 10.29,25.039 13.488,37.209 0.765,2.911 1.562,8.242 2.174,10.353 16.851,-12.871 122.488,-91.058 71.299,-118.153 -28.169,-14.91 -102.728,-0.55 -134.26,10.042 z" />
    </clipPath>
    <clipPath
       clipPathUnits="userSpaceOnUse"
       id="clipPath17">
      <path
         fill="#fcfcfc"
         d="m 644.051,382.696 c 31.532,-10.592 106.091,-24.952 134.26,-10.042 51.189,27.095 -54.448,105.282 -71.299,118.153 -0.612,-2.111 -1.409,-7.442 -2.174,-10.353 -3.198,-12.17 -7.458,-26.178 -13.488,-37.209 -8.399,-20.536 -30.222,-46.637 -47.299,-60.549 z"
         id="path17"
         style="display:none;stroke-width:1" />
      <path
         id="lpe_path-effect18"
         style="stroke-width:1"
         class="powerclip"
         d="M 325.981,332.0153 H 845.27911 V 720.34878 H 325.981 Z m 318.07,50.6807 c 17.077,13.912 38.9,40.013 47.299,60.549 6.03,11.031 10.29,25.039 13.488,37.209 0.765,2.911 1.562,8.242 2.174,10.353 16.851,-12.871 122.488,-91.058 71.299,-118.153 -28.169,-14.91 -102.728,-0.55 -134.26,10.042 z" />
    </clipPath>
  </defs>
  <defs
     id="defs4">
    <linearGradient
       id="gradient_1"
       gradientUnits="userSpaceOnUse"
       x1="582.4967"
       y1="668.70361"
       x2="547.99213"
       y2="583.89966">
      <stop
         offset="0"
         stop-color="#F99848"
         id="stop3" />
      <stop
         offset="1"
         stop-color="#946574"
         id="stop4" />
    </linearGradient>
  </defs>
  <defs
     id="defs9">
    <linearGradient
       id="gradient_2"
       gradientUnits="userSpaceOnUse"
       x1="483.9548"
       y1="442.92038"
       x2="434.63684"
       y2="358.18231">
      <stop
         offset="0"
         stop-color="#25A2DA"
         id="stop8" />
      <stop
         offset="1"
         stop-color="#46D0E2"
         id="stop9" />
    </linearGradient>
  </defs>
  <defs
     id="defs11">
    <linearGradient
       id="gradient_3"
       gradientUnits="userSpaceOnUse"
       x1="458.27097"
       y1="643.93329"
       x2="203.5795"
       y2="579.23407">
      <stop
         offset="0"
         stop-color="#45ABD6"
         id="stop10" />
      <stop
         offset="1"
         stop-color="#59DEE7"
         id="stop11" />
    </linearGradient>
  </defs>
  <g
     id="g18">
    <path
       fill="url(#gradient_0)"
       transform="scale(0.5)"
       d="m 340.697,468.707 c 0.521,-2.003 1.594,-4.744 2.34,-6.705 18.162,-48.711 55.063,-88.127 102.472,-109.457 39.257,-17.017 83.14,-20.154 124.419,-8.892 8.724,2.317 16.156,5.184 24.571,8.395 8.638,3.87 18.513,8.3 26.05,13.97 48.296,-15.21 154.11,-42.488 200.179,-18.469 8.08,4.213 15.208,10.62 18.06,19.52 3.809,11.883 -0.235,24.608 -5.873,35.178 -19.238,36.069 -63.687,71.482 -96.265,95.408 -8.956,6.578 -18.799,12.374 -27.441,19.302 0.56,25.37 -1.365,45.403 -9.636,69.771 -2.199,6.477 -5.406,15.19 -8.829,21.13 -16.807,39.267 -60.54,77.985 -99.996,93.799 -33.535,13.295 -70.106,17.002 -105.627,10.708 -6.241,-1.083 -16.281,-2.971 -21.795,-5.526 -11.163,-1.099 -41.186,-17.124 -51.02,-24.056 -5.551,-3.913 -13.072,-9.975 -18.429,-14.442 12.483,-3.99 27.908,-8.507 39.936,-13.264 4.842,-4.5 22.996,-6.792 24.418,-11.486 1.244,-4.108 4.616,-16.057 2.867,-19.632 -2.381,-1.153 -10.465,3.234 -15.15,3.685 -21.354,7.345 -42.725,14.765 -64.584,20.5 -2.201,0.578 -4.42,1.256 -6.672,1.601 -9.624,-14.824 -27.153,-36.763 -31.545,-54.635 -7.766,-15.798 -11.079,-45.685 -12.166,-63.251 0.027,-9.84 0.602,-17.966 1.59,-27.765 1.457,-10.915 4.234,-25.089 8.126,-35.387 z"
       id="path2"
       clip-path="url(#clipPath17)"
       inkscape:path-effect="#path-effect18"
       inkscape:original-d="m 340.697,468.707 c 0.521,-2.003 1.594,-4.744 2.34,-6.705 18.162,-48.711 55.063,-88.127 102.472,-109.457 39.257,-17.017 83.14,-20.154 124.419,-8.892 8.724,2.317 16.156,5.184 24.571,8.395 8.638,3.87 18.513,8.3 26.05,13.97 48.296,-15.21 154.11,-42.488 200.179,-18.469 8.08,4.213 15.208,10.62 18.06,19.52 3.809,11.883 -0.235,24.608 -5.873,35.178 -19.238,36.069 -63.687,71.482 -96.265,95.408 -8.956,6.578 -18.799,12.374 -27.441,19.302 0.56,25.37 -1.365,45.403 -9.636,69.771 -2.199,6.477 -5.406,15.19 -8.829,21.13 -16.807,39.267 -60.54,77.985 -99.996,93.799 -33.535,13.295 -70.106,17.002 -105.627,10.708 -6.241,-1.083 -16.281,-2.971 -21.795,-5.526 -11.163,-1.099 -41.186,-17.124 -51.02,-24.056 -5.551,-3.913 -13.072,-9.975 -18.429,-14.442 12.483,-3.99 27.908,-8.507 39.936,-13.264 4.842,-4.5 22.996,-6.792 24.418,-11.486 1.244,-4.108 4.616,-16.057 2.867,-19.632 -2.381,-1.153 -10.465,3.234 -15.15,3.685 -21.354,7.345 -42.725,14.765 -64.584,20.5 -2.201,0.578 -4.42,1.256 -6.672,1.601 -9.624,-14.824 -27.153,-36.763 -31.545,-54.635 -7.766,-15.798 -11.079,-45.685 -12.166,-63.251 0.027,-9.84 0.602,-17.966 1.59,-27.765 1.457,-10.915 4.234,-25.089 8.126,-35.387 z" />
    <path
       fill="#474a9c"
       transform="scale(0.5)"
       d="m 620.549,366.018 c 48.296,-15.21 154.11,-42.488 200.179,-18.469 8.08,4.213 15.208,10.62 18.06,19.52 3.809,11.883 -0.235,24.608 -5.873,35.178 -19.238,36.069 -63.687,71.482 -96.265,95.408 -8.956,6.578 -18.799,12.374 -27.441,19.302 0.56,25.37 -1.365,45.403 -9.636,69.771 -2.199,6.477 -5.406,15.19 -8.829,21.13 -16.807,39.267 -60.54,77.985 -99.996,93.799 -33.535,13.295 -70.106,17.002 -105.627,10.708 -6.241,-1.083 -16.281,-2.971 -21.795,-5.526 -11.163,-1.099 -41.186,-17.124 -51.02,-24.056 -5.551,-3.913 -13.072,-9.975 -18.429,-14.442 12.483,-3.99 27.908,-8.507 39.936,-13.264 4.842,-4.5 22.996,-6.792 24.418,-11.486 1.244,-4.108 4.616,-16.057 2.867,-19.632 -2.381,-1.153 -10.465,3.234 -15.15,3.685 11.9,-4.437 23.769,-8.957 35.607,-13.559 3.881,-1.528 28.446,-12.101 30.427,-12.165 4.84,-1.387 16.636,-7.89 22.255,-10.477 48.244,-21.909 94.652,-47.657 138.774,-76.995 9.623,-6.379 25.521,-16.578 34.001,-23.641 -0.612,-2.111 -1.409,-7.442 -2.174,-10.353 -3.198,-12.17 -7.458,-26.178 -13.488,-37.209 -8.399,-20.536 -30.222,-46.637 -47.299,-60.549 -8.256,-6.308 -14.655,-11.155 -23.502,-16.678 z"
       id="path3"
       clip-path="url(#clipPath16)"
       inkscape:path-effect="#path-effect17"
       inkscape:original-d="m 620.549,366.018 c 48.296,-15.21 154.11,-42.488 200.179,-18.469 8.08,4.213 15.208,10.62 18.06,19.52 3.809,11.883 -0.235,24.608 -5.873,35.178 -19.238,36.069 -63.687,71.482 -96.265,95.408 -8.956,6.578 -18.799,12.374 -27.441,19.302 0.56,25.37 -1.365,45.403 -9.636,69.771 -2.199,6.477 -5.406,15.19 -8.829,21.13 -16.807,39.267 -60.54,77.985 -99.996,93.799 -33.535,13.295 -70.106,17.002 -105.627,10.708 -6.241,-1.083 -16.281,-2.971 -21.795,-5.526 -11.163,-1.099 -41.186,-17.124 -51.02,-24.056 -5.551,-3.913 -13.072,-9.975 -18.429,-14.442 12.483,-3.99 27.908,-8.507 39.936,-13.264 4.842,-4.5 22.996,-6.792 24.418,-11.486 1.244,-4.108 4.616,-16.057 2.867,-19.632 -2.381,-1.153 -10.465,3.234 -15.15,3.685 11.9,-4.437 23.769,-8.957 35.607,-13.559 3.881,-1.528 28.446,-12.101 30.427,-12.165 4.84,-1.387 16.636,-7.89 22.255,-10.477 48.244,-21.909 94.652,-47.657 138.774,-76.995 9.623,-6.379 25.521,-16.578 34.001,-23.641 -0.612,-2.111 -1.409,-7.442 -2.174,-10.353 -3.198,-12.17 -7.458,-26.178 -13.488,-37.209 -8.399,-20.536 -30.222,-46.637 -47.299,-60.549 -8.256,-6.308 -14.655,-11.155 -23.502,-16.678 z" />
    <path
       fill="url(#gradient_1)"
       transform="scale(0.5 0.5)"
       d="M509.573 625.518C521.279 621.43 541.621 611.42 553.561 605.726C594.245 586.653 633.772 565.204 671.937 541.49C682.546 534.901 699.586 524.469 709.209 516.957C709.769 542.327 707.844 562.36 699.573 586.728C697.374 593.205 694.167 601.918 690.744 607.858C673.937 647.125 630.204 685.843 590.748 701.657C557.213 714.952 520.642 718.659 485.121 712.365C478.88 711.282 468.84 709.394 463.326 706.839C452.163 705.74 422.14 689.715 412.306 682.783C406.755 678.87 399.234 672.808 393.877 668.341C406.36 664.351 421.785 659.834 433.813 655.077C439.859 653.419 452.148 648.567 458.289 646.268C475.608 639.917 492.712 632.997 509.573 625.518Z"
       id="path4" />
    <path
       fill="#F39D5A"
       transform="scale(0.5 0.5)"
       d="M463.326 706.839C467.605 706.246 476.477 711.343 481.654 709.894C482.304 709.301 482.565 709.028 482.611 708.092C482.662 707.767 482.713 707.441 482.764 707.116C482.226 705.17 488.707 698.691 490.524 697.492C498.534 692.21 507.834 686.139 515.965 680.887C515.965 680.887 518.395 680.826 518.395 680.826C520.448 679.412 522.618 677.531 524.785 676.366C533.136 671.878 541.14 666.842 549.93 663.241C565.573 656.833 581.475 651.387 597.155 644.924C602.885 642.562 609.318 638.337 614.692 636.161C621.965 633.217 632.646 629.604 640.423 627.276C651.553 623.945 669.764 625.854 680.832 623.014C683.079 622.438 687.646 609.859 690.138 608.162C690.34 608.06 690.542 607.959 690.744 607.858C673.937 647.125 630.204 685.843 590.748 701.657C557.213 714.952 520.642 718.659 485.121 712.365C478.88 711.282 468.84 709.394 463.326 706.839Z"
       id="path5" />
    <path
       fill="#3E8BC4"
       transform="scale(0.5 0.5)"
       d="M445.948 627.644C457.848 623.207 469.717 618.687 481.555 614.085C485.436 612.557 510.001 601.984 511.982 601.92L511.165 602.338C498.333 608.806 484.036 612.993 471.249 619.466C471.433 619.373 466.957 640.078 466.933 641.735C467.187 641.729 471.554 640.54 471.785 640.439C479.481 637.075 487.363 634.123 495.124 630.911C498.531 629.56 506.7 625.577 509.48 624.896L509.573 625.518C492.712 632.997 475.608 639.917 458.289 646.268C452.148 648.567 439.859 653.419 433.813 655.077C438.655 650.577 456.809 648.285 458.231 643.591C459.475 639.483 462.847 627.534 461.098 623.959C458.717 622.806 450.633 627.193 445.948 627.644Z"
       id="path7" />
    <path
       fill="#5F6299"
       transform="scale(0.5 0.5)"
       d="M343.147 595.11C343.612 591.299 339.9 586.34 340.426 583.86C342.781 576.283 354.245 579.059 359.557 577.644C381.33 571.847 404.461 570.638 425.277 561.499C434.835 557.303 444.506 555.825 453.794 552.321C464.831 548.157 474.985 545.21 486.15 541.642C496.197 538.111 505.817 531.215 515.501 526.638C519.113 524.931 522.704 521.897 526.509 520.375C534.37 516.583 542.438 514.666 550.363 511.576C553.033 510.535 559.147 506.427 562.522 504.774C570.687 500.778 580.234 497.195 588.171 493.345C596.002 489.195 603.725 484.29 611.596 480.265C620.623 475.649 628.811 472.19 636.806 465.865C640.96 462.58 646.27 459.914 650.451 456.468C653.814 453.695 657.33 450.826 660.903 448.341C668.26 444.366 677.233 435.955 685.968 436.447C687.958 436.749 690.021 441.918 691.044 443.97L691.35 443.245C697.38 454.276 701.64 468.284 704.838 480.454C705.603 483.365 706.4 488.696 707.012 490.807C698.532 497.87 682.634 508.069 673.011 514.448C628.889 543.786 582.481 569.534 534.237 591.443C528.618 594.03 516.822 600.533 511.982 601.92C510.001 601.984 485.436 612.557 481.555 614.085C469.717 618.687 457.848 623.207 445.948 627.644C424.594 634.989 403.223 642.409 381.364 648.144C379.163 648.722 376.944 649.4 374.692 649.745C365.068 634.921 347.539 612.982 343.147 595.11Z"
       id="path8" />
    <path
       fill="url(#gradient_2)"
       transform="scale(0.5 0.5)"
       d="M340.697 468.707C341.218 466.704 342.291 463.963 343.037 462.002C361.199 413.291 398.1 373.875 445.509 352.545C484.766 335.528 528.649 332.391 569.928 343.653C578.652 345.97 586.084 348.837 594.499 352.048C588.349 360.424 581.994 368.611 574.848 376.163C514.696 439.741 427.336 478.574 339.781 473.649C340.392 472.122 341.155 470.757 341.007 469.174L340.697 468.707Z"
       id="path9" />
    <path
       fill="url(#gradient_3)"
       transform="scale(0.5)"
       d="m 332.571,504.094 c -0.988,9.799 -1.563,17.925 -1.59,27.765 1.087,17.566 4.4,47.453 12.166,63.251 4.392,17.872 21.921,39.811 31.545,54.635 2.252,-0.345 4.471,-1.023 6.672,-1.601 21.859,-5.735 43.23,-13.155 64.584,-20.5 4.685,-0.451 12.769,-4.838 15.15,-3.685 1.749,3.575 -1.623,15.524 -2.867,19.632 -1.422,4.694 -19.576,6.986 -24.418,11.486 -12.028,4.757 -27.453,9.274 -39.936,13.264 -3.677,0.505 -7.596,1.935 -11.195,2.908 -8.125,2.197 -16.245,4.505 -24.428,6.475 -38.598,9.293 -101.773,21.738 -140.56,11.782 -10.866,-2.789 -23.114,-8.205 -28.895,-18.401 -4.862,-8.575 -4.575,-18.965 -1.901,-28.184 12.36,-42.622 77.548,-93.009 113.265,-117.833 10.521,-7.312 21.178,-14.807 32.408,-20.994 z"
       id="path11"
       clip-path="url(#clipPath13)"
       inkscape:path-effect="#path-effect13"
       inkscape:original-d="m 332.571,504.094 c -0.988,9.799 -1.563,17.925 -1.59,27.765 1.087,17.566 4.4,47.453 12.166,63.251 4.392,17.872 21.921,39.811 31.545,54.635 2.252,-0.345 4.471,-1.023 6.672,-1.601 21.859,-5.735 43.23,-13.155 64.584,-20.5 4.685,-0.451 12.769,-4.838 15.15,-3.685 1.749,3.575 -1.623,15.524 -2.867,19.632 -1.422,4.694 -19.576,6.986 -24.418,11.486 -12.028,4.757 -27.453,9.274 -39.936,13.264 -3.677,0.505 -7.596,1.935 -11.195,2.908 -8.125,2.197 -16.245,4.505 -24.428,6.475 -38.598,9.293 -101.773,21.738 -140.56,11.782 -10.866,-2.789 -23.114,-8.205 -28.895,-18.401 -4.862,-8.575 -4.575,-18.965 -1.901,-28.184 12.36,-42.622 77.548,-93.009 113.265,-117.833 10.521,-7.312 21.178,-14.807 32.408,-20.994 z" />
  </g>
</svg>
